<?xml version="1.0" standalone="no"?>
<!DOCTYPE svg PUBLIC "-//W3C//DTD SVG 20010904//EN"
 "http://www.w3.org/TR/2001/REC-SVG-20010904/DTD/svg10.dtd">
<svg version="1.0" xmlns="http://www.w3.org/2000/svg"
 width="511.000000pt" height="360.000000pt" viewBox="0 0 511.000000 360.000000"
 preserveAspectRatio="xMidYMid meet">
<metadata>
Created by potrace 1.12, written by Peter Selinger 2001-2015
</metadata>
<g transform="translate(0.000000,360.000000) scale(0.100000,-0.100000)"
fill="#000000" stroke="none">
<path d="M4642 2483 c-11 -21 -28 -53 -38 -71 l-19 -34 30 -21 c17 -12 64 -56
107 -98 240 -242 251 -610 27 -880 -30 -36 -99 -95 -158 -136 -6 -4 17 -54 46
-95 l25 -37 43 27 c23 15 60 43 81 62 45 42 144 153 144 163 0 4 11 25 25 46
31 45 62 124 81 201 26 106 16 368 -16 455 -64 170 -154 295 -280 387 -30 23
-60 47 -66 55 -10 11 -15 7 -32 -24z"/>
<path d="M103 2485 c-10 -7 -13 -26 -11 -60 l3 -50 45 -3 c25 -2 49 -7 53 -11
6 -6 12 -612 7 -743 0 -5 -16 -8 -36 -8 -61 0 -74 -13 -74 -74 0 -40 4 -55 16
-60 28 -11 451 -6 506 5 108 23 177 71 215 148 27 56 24 203 -6 258 -22 42
-67 83 -115 104 -25 12 -36 39 -16 39 18 0 81 63 101 101 14 28 19 59 19 112
0 102 -32 166 -104 207 -28 16 -71 32 -95 36 -74 11 -493 10 -508 -1z m483
-179 c29 -33 34 -47 34 -89 0 -90 -64 -147 -165 -147 -52 0 -55 1 -55 25 -1
14 -1 72 -1 130 0 58 0 110 1 116 0 8 25 10 76 7 75 -3 78 -5 110 -42z m6
-410 c42 -27 58 -60 59 -122 2 -60 -13 -90 -64 -128 -22 -16 -43 -20 -105 -21
l-77 0 -5 135 c-3 74 -3 141 -1 149 6 20 157 10 193 -13z"/>
<path d="M1747 2224 c-108 -26 -178 -92 -219 -205 -33 -93 -32 -278 1 -362 35
-88 77 -137 151 -174 156 -79 345 -19 422 132 64 124 61 331 -7 465 -59 117
-207 178 -348 144z m123 -139 c50 -26 69 -64 82 -168 27 -218 -39 -358 -154
-327 -73 21 -108 100 -108 248 0 135 25 207 85 243 36 23 57 24 95 4z"/>
<path d="M3175 2225 c-111 -27 -177 -87 -221 -200 -16 -41 -19 -75 -19 -190 1
-131 3 -144 28 -200 56 -122 153 -185 283 -185 96 0 159 24 220 85 80 79 99
138 99 305 0 119 -3 142 -24 194 -26 65 -85 136 -135 162 -31 17 -138 44 -166
43 -8 -1 -37 -7 -65 -14z m120 -142 c59 -28 79 -84 83 -227 4 -138 -7 -191
-50 -235 -25 -25 -38 -31 -75 -31 -54 0 -88 21 -111 69 -14 29 -17 64 -17 186
0 170 11 205 76 237 42 22 50 22 94 1z"/>
<path d="M3925 2226 c-102 -21 -166 -67 -222 -164 -48 -82 -65 -237 -39 -357
28 -128 82 -196 186 -236 89 -34 288 -20 326 22 15 16 14 22 -10 74 l-25 56
-37 -16 c-52 -22 -141 -20 -181 5 -65 39 -94 158 -73 299 15 102 44 154 96
176 75 31 97 17 98 -62 l1 -58 69 0 69 0 -1 110 c-1 141 -3 143 -162 159 -19
2 -62 -2 -95 -8z"/>
<path d="M4557 2172 l-48 -48 32 -40 c57 -71 99 -188 99 -279 0 -92 -39 -199
-101 -277 l-30 -38 47 -50 c26 -27 52 -50 58 -50 7 0 28 22 49 50 143 192 166
421 62 635 -36 75 -89 145 -109 145 -6 0 -33 -22 -59 -48z"/>
<path d="M879 2203 c-5 -27 -7 -91 -3 -105 4 -14 16 -18 50 -18 l44 0 1 -47
c4 -333 3 -410 -4 -420 -5 -7 -27 -13 -48 -13 -22 0 -39 -3 -40 -7 -7 -54 -5
-100 3 -110 8 -10 60 -13 199 -13 l189 0 0 65 0 65 -48 0 c-26 0 -53 5 -60 12
-17 17 -17 429 0 446 16 16 142 16 156 -1 6 -7 12 -35 14 -62 l3 -50 55 0 55
0 0 130 0 130 -282 3 c-156 1 -284 -1 -284 -5z"/>
<path d="M2237 2203 c-4 -3 -7 -33 -7 -65 l0 -58 44 0 c50 0 56 -8 56 -78 0
-64 -25 -249 -41 -301 -13 -45 -67 -101 -98 -101 -30 0 -39 -22 -33 -87 l4
-63 42 0 c60 0 130 26 165 62 64 65 91 165 114 408 l12 135 65 0 65 0 1 -215
c1 -134 -2 -220 -8 -227 -6 -7 -24 -13 -40 -13 l-29 0 3 -62 3 -63 175 0 175
0 0 60 0 60 -45 5 -45 5 -5 300 -5 300 -281 3 c-154 1 -283 -1 -287 -5z"/>
<path d="M4435 1986 c-11 -8 -39 -26 -63 -41 -38 -23 -42 -28 -30 -42 14 -18
18 -142 5 -185 -8 -24 -4 -29 47 -62 31 -20 60 -36 65 -36 11 0 37 67 51 131
11 52 -1 146 -26 210 -18 43 -20 44 -49 25z"/>
</g>
</svg>
